<?xml version="1.0" encoding="UTF-8"?>
<svg xmlns="http://www.w3.org/2000/svg" xmlns:xlink="http://www.w3.org/1999/xlink" width="29px" height="30px" viewBox="0 0 29 29" version="1.1">
<g id="surface1">
<path style=" stroke:none;fill-rule:nonzero;fill:rgb(28.627451%,100%,30.196078%);fill-opacity:1;" d="M 26.523438 3.355469 C 26.4375 3.363281 26.328125 3.378906 26.195312 3.402344 C 25.597656 3.519531 25.09375 3.691406 24.691406 3.914062 C 24.503906 4.019531 24.242188 4.195312 23.910156 4.441406 C 23.566406 4.695312 23.304688 4.871094 23.128906 4.972656 C 22.636719 5.25 22.082031 5.429688 21.457031 5.511719 C 20.890625 5.582031 20.296875 5.566406 19.675781 5.472656 C 19.15625 5.394531 18.582031 5.253906 17.949219 5.050781 C 17.613281 4.9375 17.054688 4.734375 16.277344 4.441406 C 15.566406 4.171875 15.007812 3.972656 14.597656 3.847656 C 13.96875 3.65625 13.394531 3.527344 12.867188 3.460938 C 12.527344 3.425781 12.125 3.40625 11.664062 3.402344 C 11.679688 3.390625 11.695312 3.382812 11.714844 3.375 C 11.644531 3.382812 11.570312 3.390625 11.492188 3.402344 C 11.347656 3.40625 11.195312 3.410156 11.039062 3.410156 C 10.945312 3.414062 10.863281 3.421875 10.785156 3.433594 C 10.628906 3.40625 10.496094 3.347656 10.390625 3.261719 C 10.347656 3.222656 10.296875 3.167969 10.242188 3.09375 C 10.199219 3.027344 10.15625 2.957031 10.113281 2.875 C 10.007812 2.675781 9.921875 2.542969 9.851562 2.46875 C 9.632812 2.25 9.253906 2.167969 8.71875 2.222656 C 8.035156 2.292969 7.378906 2.449219 6.746094 2.691406 C 5.976562 2.980469 5.433594 3.359375 5.121094 3.824219 C 4.828125 4.257812 4.703125 4.804688 4.738281 5.457031 C 4.742188 5.613281 4.765625 5.796875 4.800781 5.996094 C 4.855469 6.339844 4.949219 6.738281 5.078125 7.195312 C 4.742188 7.101562 4.40625 7.058594 4.058594 7.074219 C 3.863281 7.078125 3.664062 7.097656 3.460938 7.136719 C 3.132812 7.199219 2.824219 7.300781 2.535156 7.445312 C 2.441406 7.488281 2.351562 7.539062 2.269531 7.589844 C 2.046875 7.679688 1.828125 7.769531 1.613281 7.855469 C 1.527344 7.890625 1.445312 7.929688 1.371094 7.96875 C 1.246094 8.027344 1.140625 8.082031 1.058594 8.136719 C 1.050781 8.144531 1.042969 8.148438 1.039062 8.148438 C 0.835938 8.277344 0.691406 8.421875 0.597656 8.585938 C 0.5 8.757812 0.445312 8.960938 0.4375 9.203125 C 0.433594 9.351562 0.449219 9.566406 0.484375 9.851562 L 0.6875 11.402344 C 0.671875 11.464844 0.664062 11.539062 0.667969 11.621094 C 0.675781 11.734375 0.707031 11.878906 0.757812 12.058594 C 0.851562 12.363281 0.960938 12.582031 1.078125 12.710938 C 1.164062 12.792969 1.273438 12.867188 1.410156 12.925781 C 1.492188 12.964844 1.617188 13.011719 1.789062 13.066406 C 1.921875 13.109375 2.019531 13.144531 2.085938 13.175781 C 2.191406 13.230469 2.269531 13.292969 2.320312 13.367188 C 2.359375 13.421875 2.390625 13.492188 2.417969 13.578125 C 2.425781 13.601562 2.445312 13.683594 2.46875 13.816406 C 2.511719 13.972656 2.578125 14.167969 2.671875 14.398438 C 2.730469 14.527344 2.8125 14.714844 2.917969 14.96875 C 3.003906 15.183594 3.113281 15.515625 3.253906 15.964844 C 3.390625 16.351562 3.5625 16.648438 3.757812 16.855469 C 3.972656 17.089844 4.234375 17.253906 4.542969 17.34375 C 4.5625 17.347656 4.578125 17.355469 4.597656 17.359375 C 4.597656 17.371094 4.59375 17.386719 4.589844 17.398438 C 4.953125 17.539062 5.246094 17.664062 5.464844 17.777344 C 5.695312 17.898438 5.847656 18.019531 5.921875 18.148438 C 5.96875 18.222656 5.996094 18.316406 6.007812 18.417969 C 6.015625 18.484375 6.019531 18.582031 6.019531 18.714844 C 6.003906 20.441406 5.914062 22.160156 5.746094 23.875 C 5.714844 24.21875 5.699219 24.484375 5.710938 24.664062 C 5.726562 24.960938 5.796875 25.207031 5.914062 25.40625 C 6.101562 25.722656 6.414062 25.953125 6.855469 26.097656 C 7.171875 26.199219 7.589844 26.265625 8.105469 26.289062 C 8.601562 26.3125 9.003906 26.304688 9.304688 26.261719 C 9.738281 26.207031 10.101562 26.074219 10.386719 25.871094 C 10.75 25.621094 11.023438 25.234375 11.214844 24.71875 C 11.339844 24.378906 11.445312 23.894531 11.53125 23.269531 C 11.578125 22.964844 11.621094 22.742188 11.660156 22.597656 C 11.730469 22.355469 11.828125 22.152344 11.953125 21.992188 C 12.140625 21.75 12.515625 21.507812 13.078125 21.269531 C 13.65625 21.015625 14.035156 20.78125 14.226562 20.558594 C 14.382812 20.371094 14.507812 20.121094 14.59375 19.808594 C 14.59375 19.804688 14.652344 19.527344 14.773438 18.972656 C 14.9375 18.242188 15.238281 17.792969 15.679688 17.621094 C 15.824219 17.566406 15.992188 17.539062 16.191406 17.539062 C 16.257812 17.539062 16.5 17.53125 16.925781 17.523438 L 16.925781 17.460938 L 16.929688 17.460938 C 17.050781 17.464844 17.195312 17.484375 17.363281 17.523438 C 17.457031 17.546875 17.597656 17.578125 17.789062 17.628906 C 18.234375 17.726562 18.730469 17.757812 19.277344 17.722656 C 19.695312 17.695312 20.191406 17.621094 20.761719 17.503906 C 21.347656 17.386719 21.816406 17.261719 22.164062 17.132812 C 22.835938 16.878906 23.5 16.484375 24.164062 15.945312 C 24.667969 15.539062 25.226562 15 25.839844 14.324219 C 25.949219 14.203125 26.027344 14.097656 26.078125 14.015625 C 26.148438 13.886719 26.183594 13.769531 26.175781 13.65625 C 26.171875 13.605469 26.164062 13.5625 26.148438 13.519531 C 26.46875 12.777344 26.75 11.902344 26.992188 10.898438 C 27.199219 9.980469 27.351562 9.289062 27.457031 8.832031 C 27.640625 8 27.820312 7.316406 28 6.777344 C 28.195312 6.175781 28.3125 5.738281 28.347656 5.464844 C 28.417969 4.964844 28.347656 4.546875 28.140625 4.214844 C 27.921875 3.859375 27.578125 3.628906 27.109375 3.519531 C 27.035156 3.460938 26.945312 3.414062 26.847656 3.386719 C 26.75 3.363281 26.640625 3.355469 26.523438 3.355469 M 26.394531 4.492188 C 26.527344 4.488281 26.652344 4.507812 26.769531 4.542969 C 26.9375 4.597656 27.066406 4.683594 27.160156 4.804688 C 27.273438 4.960938 27.3125 5.164062 27.277344 5.414062 C 27.257812 5.5625 27.191406 5.78125 27.085938 6.066406 C 26.878906 6.605469 26.683594 7.257812 26.5 8.023438 C 26.398438 8.464844 26.261719 9.132812 26.082031 10.03125 C 25.722656 11.691406 25.273438 12.957031 24.730469 13.832031 C 24.699219 13.886719 24.667969 13.9375 24.640625 13.980469 L 24.660156 13.980469 C 24.402344 14.261719 24.160156 14.507812 23.933594 14.726562 L 23.933594 14.707031 C 23.910156 14.722656 23.886719 14.738281 23.863281 14.753906 L 23.894531 14.753906 C 23.792969 14.851562 23.691406 14.945312 23.589844 15.027344 C 23.039062 15.492188 22.484375 15.839844 21.925781 16.070312 C 21.542969 16.226562 21.042969 16.367188 20.429688 16.488281 C 20.027344 16.566406 19.6875 16.621094 19.40625 16.652344 C 19.035156 16.6875 18.695312 16.683594 18.382812 16.644531 C 18.300781 16.632812 18.023438 16.582031 17.546875 16.488281 C 17.214844 16.421875 16.9375 16.394531 16.714844 16.40625 C 16.636719 16.410156 16.566406 16.421875 16.503906 16.4375 C 16.480469 16.433594 16.464844 16.433594 16.453125 16.433594 C 16.144531 16.425781 15.875 16.449219 15.648438 16.5 C 15.128906 16.621094 14.683594 16.90625 14.308594 17.359375 C 13.960938 17.789062 13.738281 18.277344 13.644531 18.832031 C 13.628906 18.925781 13.609375 19.070312 13.578125 19.257812 C 13.546875 19.421875 13.503906 19.554688 13.449219 19.660156 C 13.300781 19.941406 12.957031 20.183594 12.417969 20.390625 C 11.808594 20.625 11.414062 20.832031 11.238281 21.007812 C 11.109375 21.136719 10.996094 21.308594 10.910156 21.519531 C 10.847656 21.65625 10.78125 21.851562 10.710938 22.101562 C 10.539062 22.730469 10.386719 23.355469 10.253906 23.96875 C 10.207031 24.195312 10.164062 24.367188 10.125 24.480469 C 10.058594 24.664062 9.960938 24.804688 9.839844 24.902344 C 9.734375 24.996094 9.597656 25.066406 9.429688 25.109375 C 9.308594 25.140625 9.152344 25.164062 8.960938 25.179688 C 8.535156 25.214844 8.082031 25.207031 7.597656 25.164062 C 7.445312 25.148438 7.320312 25.125 7.226562 25.097656 C 7.097656 25.054688 7 24.984375 6.9375 24.890625 C 6.886719 24.820312 6.855469 24.734375 6.84375 24.625 C 6.835938 24.558594 6.832031 24.460938 6.839844 24.335938 L 7.121094 18.972656 C 7.136719 18.644531 7.136719 18.390625 7.117188 18.207031 C 7.082031 17.925781 7.003906 17.691406 6.878906 17.503906 C 6.761719 17.328125 6.585938 17.167969 6.351562 17.027344 C 6.199219 16.9375 5.976562 16.832031 5.679688 16.707031 L 5.296875 16.550781 C 5.222656 16.484375 5.105469 16.417969 4.945312 16.351562 C 4.742188 16.269531 4.609375 16.191406 4.542969 16.121094 C 4.484375 16.066406 4.421875 15.972656 4.359375 15.839844 C 4.285156 15.675781 4.199219 15.429688 4.097656 15.097656 C 3.996094 14.761719 3.910156 14.511719 3.84375 14.351562 C 3.742188 14.140625 3.671875 13.976562 3.628906 13.867188 C 3.601562 13.796875 3.550781 13.628906 3.480469 13.363281 C 3.421875 13.15625 3.363281 12.992188 3.296875 12.871094 C 3.191406 12.679688 3.035156 12.515625 2.828125 12.375 C 2.636719 12.246094 2.417969 12.152344 2.179688 12.085938 C 2.082031 12.054688 2.027344 12.035156 2.019531 12.03125 C 1.960938 12.011719 1.914062 11.980469 1.886719 11.941406 C 1.878906 11.9375 1.875 11.933594 1.871094 11.929688 L 1.609375 9.886719 C 1.648438 9.800781 1.679688 9.699219 1.710938 9.585938 C 1.773438 9.34375 1.855469 9.183594 1.957031 9.097656 C 2.003906 9.0625 2.066406 9.03125 2.144531 9 C 2.191406 8.980469 2.257812 8.957031 2.351562 8.925781 C 2.410156 8.902344 2.5 8.855469 2.621094 8.789062 C 2.742188 8.734375 2.835938 8.691406 2.898438 8.664062 C 2.949219 8.644531 3.023438 8.621094 3.121094 8.589844 C 3.203125 8.5625 3.273438 8.53125 3.324219 8.492188 C 3.414062 8.441406 3.484375 8.371094 3.523438 8.289062 C 3.585938 8.265625 3.636719 8.242188 3.671875 8.230469 C 3.714844 8.210938 3.753906 8.191406 3.785156 8.175781 C 3.867188 8.167969 3.945312 8.164062 4.023438 8.167969 C 4.472656 8.171875 4.96875 8.320312 5.503906 8.609375 C 5.71875 8.726562 5.878906 8.800781 5.980469 8.835938 C 6.171875 8.898438 6.335938 8.894531 6.472656 8.832031 C 6.609375 8.769531 6.707031 8.65625 6.765625 8.492188 C 6.816406 8.34375 6.820312 8.1875 6.78125 8.03125 C 6.75 7.902344 6.6875 7.761719 6.597656 7.609375 C 6.488281 7.433594 6.40625 7.304688 6.351562 7.214844 C 6.039062 6.699219 5.859375 6.140625 5.8125 5.542969 C 5.804688 5.515625 5.804688 5.488281 5.804688 5.460938 C 5.777344 5.007812 5.859375 4.644531 6.054688 4.367188 C 6.167969 4.214844 6.332031 4.078125 6.542969 3.960938 C 6.695312 3.878906 6.894531 3.796875 7.144531 3.707031 C 7.578125 3.5625 8.011719 3.433594 8.445312 3.328125 C 8.679688 3.269531 8.855469 3.265625 8.972656 3.3125 C 9.070312 3.347656 9.164062 3.429688 9.25 3.554688 C 9.257812 3.570312 9.269531 3.585938 9.28125 3.605469 C 9.324219 3.675781 9.382812 3.769531 9.453125 3.886719 C 9.578125 4.058594 9.746094 4.203125 9.964844 4.316406 C 10.164062 4.417969 10.382812 4.480469 10.625 4.511719 C 10.816406 4.539062 11.035156 4.542969 11.285156 4.527344 L 11.28125 4.523438 C 11.261719 4.496094 11.242188 4.46875 11.226562 4.433594 C 11.265625 4.433594 11.304688 4.433594 11.351562 4.429688 C 12.121094 4.402344 12.976562 4.519531 13.921875 4.777344 C 14.433594 4.917969 15.261719 5.199219 16.402344 5.621094 C 17.433594 6.007812 18.269531 6.269531 18.90625 6.417969 C 19.851562 6.632812 20.710938 6.691406 21.484375 6.601562 C 22.335938 6.496094 23.125 6.21875 23.855469 5.769531 C 24.09375 5.621094 24.449219 5.378906 24.914062 5.046875 C 25.332031 4.773438 25.714844 4.605469 26.0625 4.542969 C 26.136719 4.53125 26.246094 4.511719 26.394531 4.492188 M 11.699219 16.277344 C 11.699219 16.554688 11.800781 16.789062 12 16.988281 C 12.121094 17.101562 12.25 17.183594 12.390625 17.230469 C 12.5 17.265625 12.613281 17.285156 12.734375 17.285156 C 12.738281 17.285156 12.738281 17.285156 12.742188 17.285156 C 13.027344 17.285156 13.269531 17.183594 13.46875 16.988281 C 13.671875 16.789062 13.769531 16.554688 13.769531 16.277344 C 13.769531 15.992188 13.671875 15.753906 13.46875 15.554688 C 13.265625 15.359375 13.023438 15.261719 12.734375 15.261719 C 12.449219 15.261719 12.203125 15.359375 12 15.554688 C 11.800781 15.753906 11.699219 15.992188 11.699219 16.277344 M 8.621094 7.285156 L 8.277344 7.339844 C 8.582031 9.230469 8.792969 11.5 8.902344 14.152344 L 9.289062 14.128906 C 11 12.46875 13.003906 12.367188 15.300781 13.824219 C 17.648438 15.742188 20.421875 15.328125 23.621094 12.585938 L 25.75 5.878906 C 22.972656 8.660156 19.667969 9.136719 15.84375 7.320312 C 13.558594 5.632812 11.148438 5.621094 8.621094 7.285156 M 3.949219 9.316406 C 3.664062 9.316406 3.421875 9.414062 3.21875 9.609375 C 3.015625 9.808594 2.914062 10.046875 2.914062 10.328125 C 2.914062 10.605469 3.015625 10.84375 3.21875 11.039062 C 3.421875 11.238281 3.664062 11.339844 3.949219 11.339844 C 3.953125 11.339844 3.957031 11.339844 3.964844 11.339844 C 4.015625 11.339844 4.066406 11.335938 4.117188 11.328125 C 4.332031 11.292969 4.523438 11.199219 4.6875 11.039062 C 4.890625 10.84375 4.988281 10.605469 4.988281 10.328125 C 4.988281 10.046875 4.890625 9.808594 4.6875 9.609375 C 4.488281 9.414062 4.242188 9.316406 3.949219 9.316406 Z M 3.949219 9.316406 "/>
<path style="fill:none;stroke-width:8;stroke-linecap:round;stroke-linejoin:round;stroke:rgb(28.627451%,100%,30.196078%);stroke-opacity:1;stroke-miterlimit:4;" d="M 67.083782 142.456897 C 67.083782 146.282328 65.770474 149.568966 63.038793 152.262931 C 60.832435 154.471983 58.258351 155.765086 55.369073 156.25 C 54.686153 156.357759 54.003233 156.411638 53.320312 156.411638 C 53.215248 156.411638 53.162716 156.411638 53.110183 156.411638 C 49.275323 156.411638 46.018319 155.010776 43.286638 152.262931 C 40.554957 149.568966 39.189116 146.282328 39.189116 142.456897 C 39.189116 138.577586 40.554957 135.290948 43.286638 132.543103 C 46.018319 129.849138 49.275323 128.502155 53.110183 128.502155 C 57.050108 128.502155 60.359644 129.849138 63.038793 132.543103 C 65.770474 135.290948 67.083782 138.577586 67.083782 142.456897 Z M 185.176455 224.515086 C 185.176455 228.340517 183.863147 231.573276 181.131466 234.321121 C 178.452317 237.015086 175.195312 238.415948 171.360453 238.415948 C 171.30792 238.415948 171.30792 238.415948 171.255388 238.415948 C 169.626886 238.415948 168.103448 238.146552 166.632543 237.661638 C 164.741379 237.015086 163.007812 235.883621 161.37931 234.321121 C 158.700162 231.573276 157.334321 228.340517 157.334321 224.515086 C 157.334321 220.581897 158.700162 217.295259 161.37931 214.547414 C 164.110991 211.853448 167.420528 210.506466 171.255388 210.506466 C 175.14278 210.506466 178.399784 211.853448 181.131466 214.547414 C 183.863147 217.295259 185.176455 220.581897 185.176455 224.515086 Z M 185.176455 224.515086 " transform="matrix(0.074359,0,0,0.0725,0,0)"/>
<path style="fill:none;stroke-width:16;stroke-linecap:round;stroke-linejoin:round;stroke:rgb(28.627451%,100%,30.196078%);stroke-opacity:1;stroke-miterlimit:4;" d="M 115.938847 100.484914 C 149.927263 77.532328 182.339709 77.693966 213.071121 100.969828 C 264.500269 126.023707 308.942619 119.450431 346.293103 81.088362 L 317.662985 173.599138 C 274.639009 211.422414 237.341056 217.133621 205.769127 190.678879 C 174.880119 170.581897 147.931034 171.982759 124.921875 194.881466 M 119.721175 195.204741 C 119.931304 202.424569 120.141433 209.859914 120.29903 217.564655 C 120.824353 239.278017 120.824353 262.715517 120.456627 287.823276 C 120.29903 298.706897 120.036369 309.859914 119.721175 321.336207 M 119.721175 195.204741 C 118.250269 158.62069 115.413524 127.31681 111.316002 101.239224 C 109.372306 89.116379 107.165948 78.125 104.644397 68.318966 " transform="matrix(0.074359,0,0,0.0725,0,0)"/>
<path style="fill:none;stroke-width:12;stroke-linecap:round;stroke-linejoin:round;stroke:rgb(28.627451%,100%,30.196078%);stroke-opacity:1;stroke-miterlimit:4;" d="M 122.032597 287.877155 L 159.488147 264.116379 L 165.844558 240.463362 M 55.579203 158.836207 L 69.395205 198.329741 L 113.259698 217.618534 " transform="matrix(0.074359,0,0,0.0725,0,0)"/>
</g>
</svg>
