<?xml version="1.0" encoding="utf-8"?><svg id="svg_test" image-rendering="auto" baseProfile="basic" version="1.1" preserveAspectRatio="xMidYMid meet" x="0px" y="0px" width="390" height="400" xmlns="http://www.w3.org/2000/svg" viewBox="0 0 390 400" xmlns:xlink="http://www.w3.org/1999/xlink"><defs><radialGradient id="Gradient_1" gradientUnits="userSpaceOnUse" cx="0" cy="0" r="266.1" fx="0" fy="0" gradientTransform="translate(196.65 192.35)" spreadMethod="pad"><stop offset="0%" stop-color="#090"/><stop offset="100%" stop-color="#0F0"/></radialGradient></defs><g id="Scene-1" overflow="visible"><g><g id="block" transform="matrix(.965 0 0 .97 4.5 26.3)"><g><g><g id="Layer2_0_FILL"><path fill="#49FF4D" stroke="none" d="M390.7 8.6Q380.9 .05 367.2 .05L198.95 .05 197.45 .15 29.2 .15Q15.5 .15 5.7 8.7 -4.05 17.3 -4.05 29.35L-4.05 336.4Q-4.05 348.55 5.7 357.1 15.5 365.7 29.2 365.7L70.65 365.7 93.15 384.7 303.1 384.7 325.75 365.6 367.2 365.6Q380.9 365.6 390.7 357 396.3 352.05 398.7 345.95L398.7 19.65Q396.3 13.55 390.7 8.6Z"/></g></g><g id="outline"/></g></g><g id="block-copy" transform="matrix(.965 0 0 .97 5.45 6.1)"><g><g><g id="Layer3_0_FILL"><path fill="url(#Gradient_1)" stroke="none" d="M397.2 29.2Q397.2 17.15 387.5 8.55 377.8 0 364.2 0L197.35 0 195.85 .1 29 .1Q15.4 .1 5.7 8.65 -3.95 17.25 -3.95 29.3L-3.95 336.35Q-3.95 348.5 5.7 357.05 15.4 365.65 29 365.65L70.1 365.65 92.45 384.65 300.65 384.65 323.1 365.55 364.2 365.55Q377.8 365.55 387.5 356.95 397.2 348.4 397.2 336.25L397.2 29.2Z"/></g></g><g id="outline"/></g></g><g id="Symbol-3" transform="matrix(.965 0 0 .988 5.45 2.55)"><g><path id="Layer4_0_1_STROKES" stroke="#49FF4D" stroke-width="7" stroke-linejoin="round" stroke-linecap="round" fill="none" d="M330.5 363.45L360.8 363.45Q374.1 363.45 383.65 354.95 393.1 346.5 393.1 334.45L393.1 30.45Q393.1 18.55 383.65 10 374.1 1.55 360.8 1.55L197.25 1.55M62.5 363.55L32.25 363.55Q18.9 363.55 9.4 355.05 -.05 346.6 -.05 334.55L-.05 30.55Q-.05 18.65 9.4 10.1 18.9 1.65 32.25 1.65L195.75 1.65M195.75 393.1L107 393.1 72.5 363.55 63.35 363.55M197.25 393L286.05 393 320.5 363.45 329.65 363.45"/></g></g></g><g><g id="Layer1_0_FILL"><path fill="#49FF4D" fill-opacity=".678" stroke="none" d="M336.95 60.95Q335.4 61.05 333 61.5 322.1 63.65 314.75 67.85 311.35 69.8 305.3 74.4 299.1 79.1 295.85 81 287 86.2 275.65 87.65 265.35 89 254.05 87.2 244.65 85.75 233.2 81.95 227.1 79.9 212.95 74.4 200.1 69.35 192.65 67 181.25 63.45 171.7 62.25 165.55 61.55 157.15 61.5 157.4 61.3 157.75 61.15 156.45 61.3 155.1 61.5 152.45 61.55 149.6 61.6 147.9 61.65 146.5 61.85 143.6 61.4 141.75 59.75 140.15 58.4 138.4 54.95 136.5 51.25 135.2 49.9 131.2 45.85 121.5 46.85 109.1 48.15 97.6 52.65 83.65 58.05 77.95 66.75 72.65 74.8 73.3 86.95 73.75 95.1 77.45 108.55 67.95 105.9 57.9 107.85 50 109.4 43.45 113.5 39.45 115.1 35.55 116.75 31 118.75 28.55 120.4 24.9 122.8 23.2 125.85 21.45 129 21.3 133.5 21.2 136.25 21.85 141.55L24.35 160.75Q24 162 24.1 163.5 24.2 165.6 25.15 168.9 26.85 174.6 29.05 177 30.55 178.55 33.05 179.7 34.5 180.4 37.65 181.4 40.05 182.2 41.25 182.8 43.15 183.8 44.1 185.15 44.8 186.2 45.25 187.8 45.4 188.25 45.9 190.7 46.6 193.7 48.35 197.95 49.35 200.35 51.3 205.05 52.85 209.1 55.35 217.4 57.9 224.6 61.45 228.5 65.35 232.8 70.95 234.5 71.3 234.6 71.65 234.7 71.6 234.95 71.5 235.2 78.1 237.8 82.1 239.9 86.3 242.15 87.65 244.5 88.45 245.9 88.7 247.9 88.85 249.1 88.85 251.55 88.55 283.7 85.55 315.55 84.9 322 85.1 325.4 85.4 330.85 87.55 334.6 90.95 340.5 98.95 343.15 104.75 345.1 114.1 345.55 123.1 346 128.6 345.25 136.5 344.15 141.7 340.4 148.25 335.7 151.7 326.05 153.95 319.7 155.55 308.05 156.35 302.45 157.1 299.75 158.35 295.2 160.6 292.2 164 287.7 174.25 283.2 184.7 278.55 188.15 274.4 191 270.95 192.6 265.1 192.6 265.05 194.8 254.75 197.7 241.15 205.75 237.95 208.35 236.95 211.9 236.95 213.1 236.95 220.8 236.75L220.8 236 220.85 236Q223.05 236.05 226.1 236.75 227.8 237.15 231.25 238.05 239.35 239.85 249.25 239.2 256.85 238.7 267.25 236.5 277.9 234.3 284.2 231.85 296.4 227.2 308.4 217.2 317.55 209.65 328.65 197 330.65 194.8 331.55 193.2 332.85 190.9 332.75 188.75 332.7 187.85 332.4 187.1 338.25 173.25 342.6 154.55 346.35 137.4 348.25 128.85 351.6 113.45 354.8 103.4 358.35 92.15 359.05 87.1 360.25 77.75 356.5 71.6 352.55 65 344.05 62.95 342.65 61.8 340.85 61.3 339.1 60.85 336.95 60.95M331.35 75.65Q332.75 75.4 335.4 75.05 337.8 75 339.9 75.65 343 76.65 344.65 78.9 346.75 81.8 346.1 86.45 345.7 89.3 343.75 94.5 339.95 104.55 336.7 118.8 334.85 127.05 331.6 143.75 325.15 174.65 315.25 190.95 314.65 192 314.15 192.8L314.4 192.8Q309.75 198 305.6 202L305.6 201.8Q305.2 202.1 304.75 202.4L305.15 202.4Q303.25 204.25 301.45 205.8 291.45 214.45 281.3 218.7 274.35 221.65 263.2 223.9 255.9 225.4 250.85 225.95 244.1 226.6 238.45 225.85 237 225.65 228.35 223.95 222.25 222.7 218.25 222.9 216.85 223 215.7 223.25 215.3 223.2 215.1 223.2 209.5 223.1 205.35 224.05 195.95 226.25 189.15 234.7 182.8 242.7 181.1 253 180.85 254.75 180.3 258.3 179.75 261.3 178.75 263.3 176.05 268.5 166.3 272.35 155.2 276.7 152 280 149.65 282.45 148 286.35 146.9 288.95 145.6 293.6 142.45 305.3 140.1 316.75 139.25 321 138.5 323.1 137.25 326.5 135.1 328.35 133.15 330.1 130.1 330.9 127.85 331.5 124.45 331.75 116.65 332.4 107.95 331.6 105.15 331.3 103.45 330.75 101.1 329.9 99.95 328.2 99 326.9 98.8 324.9 98.65 323.7 98.75 321.3L102.15 254.75Q102.45 248.6 102.1 245.25 101.5 240 99.25 236.5 97.1 233.2 92.85 230.6 90.1 228.9 84.75 226.65L80.1 224.7Q78.75 223.4 75.85 222.2 72.2 220.65 70.95 219.35 69.9 218.35 68.75 215.85 67.45 212.8 65.6 206.65 63.75 200.35 62.5 197.4 60.65 193.4 59.9 191.35 59.4 190.05 58.1 185.1 57.1 181.25 55.9 179.05 53.95 175.45 50.2 172.85 46.75 170.5 42.35 169.25 40.6 168.7 40.45 168.6 39.35 168.2 38.8 167.5 38.7 167.4 38.65 167.3L35.5 141.95Q36.15 140.4 36.7 138.2 37.85 133.75 39.65 132.2 40.5 131.5 41.95 130.95 42.75 130.6 44.45 130 45.5 129.6 47.75 128.4 49.9 127.25 51.1 126.8 52 126.45 53.75 125.9 55.3 125.35 56.25 124.7 57.85 123.7 58.65 122.15 59.8 121.7 60.45 121.4 61.2 121.05 61.8 120.7 63.25 120.55 64.7 120.6 72.9 120.75 82.6 126.1 86.5 128.3 88.4 128.9 91.85 130.05 94.35 128.85 96.8 127.7 97.85 124.7 98.75 121.9 98.05 118.95 97.5 116.6 95.85 113.7 93.85 110.45 92.85 108.8 87.2 99.2 86.3 88.05 85.5 78.9 89.25 73.5 91.35 70.6 95.15 68.45 97.9 66.9 102.45 65.3 110.35 62.55 118.15 60.55 122.5 59.5 124.55 60.4 126.35 61.1 127.9 63.4 128.75 64.7 130.4 67.5 132.65 70.75 136.6 72.85 140.2 74.7 144.55 75.3 148.05 75.75 152.55 75.45L152.5 75.4Q152.1 74.9 151.85 74.3 152.55 74.3 153.35 74.25 167.3 73.75 184.45 78.55 193.75 81.15 214.5 89.05 233.2 96.2 244.8 98.9 261.9 102.9 276 101.2 291.45 99.3 304.65 90.9 309 88.1 317.45 81.9 325.05 76.85 331.35 75.65Z"/><path fill="#49FF4D" stroke="none" d="M161.2 212.35Q157.55 216 157.55 221.25 157.55 226.45 161.2 230.1 163.35 232.25 165.95 233.1 167.9 233.8 170.1 233.8 170.15 233.8 170.2 233.8 175.35 233.75 179 230.1 182.65 226.45 182.65 221.25 182.65 216 179 212.35 175.3 208.7 170.1 208.7 164.9 208.7 161.2 212.35M120.3 109.7L116.15 110.35Q121.75 145.55 123.7 194.9L128.4 194.65Q159.45 163.65 201.15 190.9 243.75 226.55 301.85 175.45L327.6 92.25Q277.15 143.95 207.7 110.1 166.2 78.7 120.3 109.7M54.95 138.55Q51.25 142.2 51.25 147.45 51.25 152.65 54.95 156.3 58.6 160 63.8 160 63.85 160 63.95 160 64.9 160 65.8 159.85 69.75 159.25 72.7 156.3 76.35 152.65 76.35 147.45 76.35 142.2 72.7 138.55 69.05 134.9 63.8 134.9 58.6 134.9 54.95 138.55Z"/></g><path id="Layer1_0_1_STROKES" stroke="#49FF4D" stroke-width="16" stroke-linejoin="round" stroke-linecap="round" fill="none" d="M120.3 109.7Q166.2 78.7 207.7 110.1 277.15 143.95 327.6 92.25L301.85 175.45Q243.75 226.55 201.15 190.9 159.45 163.65 128.4 194.65M123.7 194.9Q124 204.65 124.25 215 124.9 244.35 124.4 278.25 124.15 292.9 123.7 308.4M123.7 194.9Q121.75 145.55 116.15 110.35 113.55 94 110.15 80.75"/><path id="Layer1_0_2_STROKES" stroke="#49FF4D" stroke-width="8" stroke-linejoin="round" stroke-linecap="round" fill="none" d="M76.35 147.45Q76.35 152.65 72.7 156.3 69.75 159.25 65.8 159.85 64.9 160 63.95 160 63.85 160 63.8 160 58.6 160 54.95 156.3 51.25 152.65 51.25 147.45 51.25 142.2 54.95 138.55 58.6 134.9 63.8 134.9 69.05 134.9 72.7 138.55 76.35 142.2 76.35 147.45ZM182.65 221.25Q182.65 226.45 179 230.1 175.35 233.75 170.2 233.8 170.15 233.8 170.1 233.8 167.9 233.8 165.95 233.1 163.35 232.25 161.2 230.1 157.55 226.45 157.55 221.25 157.55 216 161.2 212.35 164.9 208.7 170.1 208.7 175.3 208.7 179 212.35 182.65 216 182.65 221.25Z"/><path id="Layer1_0_3_STROKES" stroke="#49FF4D" stroke-width="12" stroke-linejoin="round" stroke-linecap="round" fill="none" d="M66 162.2L78.4 197.75 117.9 215.05M125.8 278.3L159.5 256.9 165.2 235.6"/></g></g></svg>