<?xml version="1.0" encoding="UTF-8"?>
<svg xmlns="http://www.w3.org/2000/svg" xmlns:xlink="http://www.w3.org/1999/xlink" width="48px" height="51px" viewBox="0 0 48 51" version="1.1">
<g id="surface1">
<path style="stroke:none;fill-rule:nonzero;fill:rgb(28.627451%,100%,30.196078%);fill-opacity:1;" d="M 43.898438 7.664062 C 43.757812 7.675781 43.582031 7.710938 43.359375 7.746094 C 42.363281 7.933594 41.53125 8.203125 40.863281 8.566406 C 40.558594 8.730469 40.125 9.011719 39.574219 9.410156 C 39.011719 9.808594 38.578125 10.089844 38.285156 10.253906 C 37.464844 10.699219 36.550781 10.992188 35.519531 11.121094 C 34.582031 11.226562 33.597656 11.203125 32.566406 11.050781 C 31.710938 10.933594 30.761719 10.710938 29.707031 10.382812 C 29.15625 10.195312 28.230469 9.878906 26.941406 9.410156 C 25.769531 8.976562 24.84375 8.660156 24.164062 8.460938 C 23.121094 8.144531 22.171875 7.945312 21.292969 7.839844 C 20.730469 7.78125 20.074219 7.746094 19.300781 7.746094 C 19.335938 7.722656 19.359375 7.710938 19.394531 7.699219 C 19.277344 7.710938 19.148438 7.722656 19.019531 7.746094 C 18.785156 7.746094 18.527344 7.757812 18.269531 7.757812 C 18.117188 7.757812 17.976562 7.769531 17.847656 7.792969 C 17.589844 7.746094 17.367188 7.652344 17.203125 7.523438 C 17.132812 7.453125 17.039062 7.371094 16.957031 7.253906 C 16.886719 7.148438 16.804688 7.03125 16.734375 6.902344 C 16.570312 6.585938 16.417969 6.363281 16.300781 6.246094 C 15.949219 5.894531 15.316406 5.765625 14.425781 5.859375 C 13.300781 5.964844 12.210938 6.222656 11.167969 6.609375 C 9.890625 7.066406 8.988281 7.675781 8.472656 8.414062 C 7.992188 9.117188 7.78125 9.984375 7.839844 11.027344 C 7.851562 11.285156 7.886719 11.578125 7.945312 11.894531 C 8.039062 12.445312 8.191406 13.078125 8.402344 13.816406 C 7.851562 13.664062 7.289062 13.59375 6.714844 13.617188 C 6.398438 13.628906 6.070312 13.652344 5.730469 13.722656 C 5.179688 13.816406 4.675781 13.980469 4.195312 14.214844 C 4.042969 14.285156 3.890625 14.367188 3.761719 14.449219 C 3.386719 14.589844 3.023438 14.730469 2.671875 14.871094 C 2.53125 14.929688 2.390625 14.988281 2.273438 15.046875 C 2.0625 15.140625 1.886719 15.234375 1.757812 15.316406 C 1.734375 15.328125 1.722656 15.339844 1.722656 15.339844 C 1.382812 15.539062 1.148438 15.773438 0.984375 16.042969 C 0.832031 16.3125 0.738281 16.640625 0.726562 17.027344 C 0.714844 17.261719 0.738281 17.601562 0.796875 18.058594 L 1.136719 20.542969 C 1.113281 20.648438 1.101562 20.765625 1.101562 20.894531 C 1.113281 21.070312 1.171875 21.304688 1.253906 21.597656 C 1.40625 22.078125 1.59375 22.429688 1.78125 22.640625 C 1.921875 22.769531 2.109375 22.886719 2.332031 22.980469 C 2.472656 23.039062 2.671875 23.121094 2.964844 23.203125 C 3.175781 23.273438 3.339844 23.332031 3.457031 23.378906 C 3.632812 23.472656 3.761719 23.566406 3.84375 23.683594 C 3.902344 23.777344 3.960938 23.882812 4.007812 24.023438 C 4.019531 24.058594 4.042969 24.199219 4.089844 24.410156 C 4.160156 24.65625 4.265625 24.972656 4.417969 25.335938 C 4.523438 25.546875 4.652344 25.839844 4.828125 26.25 C 4.96875 26.589844 5.15625 27.128906 5.390625 27.84375 C 5.613281 28.464844 5.894531 28.933594 6.222656 29.273438 C 6.574219 29.648438 7.007812 29.90625 7.523438 30.046875 C 7.546875 30.058594 7.582031 30.070312 7.605469 30.070312 C 7.605469 30.09375 7.605469 30.117188 7.59375 30.140625 C 8.203125 30.363281 8.683594 30.5625 9.046875 30.738281 C 9.421875 30.9375 9.679688 31.136719 9.796875 31.335938 C 9.878906 31.453125 9.925781 31.605469 9.949219 31.769531 C 9.960938 31.875 9.960938 32.027344 9.960938 32.238281 C 9.9375 35.003906 9.785156 37.757812 9.515625 40.5 C 9.457031 41.050781 9.433594 41.472656 9.457031 41.765625 C 9.480469 42.234375 9.597656 42.632812 9.785156 42.949219 C 10.101562 43.453125 10.617188 43.828125 11.34375 44.050781 C 11.871094 44.214844 12.5625 44.320312 13.417969 44.367188 C 14.238281 44.402344 14.90625 44.390625 15.398438 44.320312 C 16.113281 44.226562 16.722656 44.015625 17.191406 43.699219 C 17.789062 43.289062 18.246094 42.679688 18.5625 41.847656 C 18.773438 41.308594 18.949219 40.535156 19.089844 39.527344 C 19.160156 39.046875 19.230469 38.683594 19.300781 38.460938 C 19.417969 38.074219 19.582031 37.746094 19.78125 37.488281 C 20.097656 37.101562 20.71875 36.714844 21.644531 36.328125 C 22.605469 35.929688 23.226562 35.554688 23.542969 35.191406 C 23.800781 34.898438 24.011719 34.488281 24.152344 33.996094 C 24.152344 33.984375 24.257812 33.539062 24.457031 32.660156 C 24.726562 31.488281 25.21875 30.773438 25.957031 30.492188 C 26.191406 30.410156 26.472656 30.363281 26.800781 30.363281 C 26.90625 30.363281 27.304688 30.351562 28.019531 30.339844 L 28.019531 30.234375 C 28.21875 30.246094 28.464844 30.269531 28.734375 30.339844 C 28.898438 30.375 29.132812 30.421875 29.449219 30.503906 C 30.175781 30.667969 31.007812 30.714844 31.910156 30.65625 C 32.601562 30.609375 33.421875 30.492188 34.359375 30.304688 C 35.332031 30.117188 36.105469 29.917969 36.679688 29.707031 C 37.792969 29.308594 38.894531 28.675781 39.996094 27.808594 C 40.828125 27.164062 41.753906 26.296875 42.773438 25.21875 C 42.949219 25.019531 43.078125 24.855469 43.160156 24.726562 C 43.277344 24.515625 43.335938 24.328125 43.324219 24.152344 C 43.324219 24.070312 43.300781 24 43.277344 23.929688 C 43.804688 22.746094 44.273438 21.339844 44.671875 19.734375 C 45.023438 18.269531 45.269531 17.167969 45.445312 16.429688 C 45.75 15.105469 46.042969 14.003906 46.347656 13.148438 C 46.664062 12.175781 46.863281 11.484375 46.921875 11.039062 C 47.039062 10.242188 46.921875 9.574219 46.582031 9.046875 C 46.21875 8.472656 45.644531 8.109375 44.871094 7.933594 C 44.742188 7.839844 44.601562 7.757812 44.4375 7.722656 C 44.273438 7.675781 44.097656 7.664062 43.898438 7.664062 M 43.6875 9.492188 C 43.910156 9.480469 44.109375 9.515625 44.308594 9.574219 C 44.589844 9.65625 44.800781 9.796875 44.953125 9.984375 C 45.140625 10.242188 45.210938 10.558594 45.152344 10.957031 C 45.117188 11.203125 45.011719 11.554688 44.835938 12.011719 C 44.484375 12.867188 44.167969 13.910156 43.863281 15.140625 C 43.699219 15.84375 43.464844 16.910156 43.171875 18.351562 C 42.574219 21.011719 41.835938 23.027344 40.933594 24.433594 C 40.886719 24.515625 40.828125 24.597656 40.78125 24.667969 L 40.816406 24.667969 C 40.394531 25.113281 39.984375 25.511719 39.609375 25.863281 L 39.609375 25.828125 C 39.574219 25.851562 39.539062 25.886719 39.492188 25.910156 L 39.550781 25.910156 C 39.386719 26.0625 39.210938 26.214844 39.046875 26.34375 C 38.132812 27.082031 37.21875 27.644531 36.292969 28.007812 C 35.660156 28.265625 34.828125 28.488281 33.820312 28.675781 C 33.152344 28.804688 32.589844 28.898438 32.121094 28.945312 C 31.511719 29.003906 30.949219 28.992188 30.421875 28.933594 C 30.292969 28.910156 29.835938 28.828125 29.039062 28.675781 C 28.488281 28.570312 28.03125 28.535156 27.667969 28.546875 C 27.539062 28.558594 27.421875 28.570312 27.316406 28.605469 C 27.28125 28.59375 27.257812 28.59375 27.234375 28.59375 C 26.71875 28.582031 26.273438 28.617188 25.898438 28.699219 C 25.042969 28.898438 24.304688 29.355469 23.683594 30.070312 C 23.109375 30.761719 22.734375 31.546875 22.582031 32.425781 C 22.558594 32.578125 22.523438 32.8125 22.476562 33.117188 C 22.417969 33.375 22.347656 33.585938 22.265625 33.761719 C 22.019531 34.207031 21.445312 34.59375 20.554688 34.921875 C 19.546875 35.296875 18.890625 35.636719 18.597656 35.917969 C 18.386719 36.117188 18.199219 36.398438 18.058594 36.726562 C 17.953125 36.949219 17.847656 37.265625 17.730469 37.664062 C 17.449219 38.671875 17.191406 39.667969 16.96875 40.652344 C 16.898438 41.015625 16.828125 41.285156 16.757812 41.472656 C 16.652344 41.765625 16.488281 41.988281 16.289062 42.140625 C 16.113281 42.292969 15.890625 42.410156 15.609375 42.480469 C 15.410156 42.527344 15.152344 42.5625 14.835938 42.585938 C 14.132812 42.644531 13.382812 42.632812 12.574219 42.5625 C 12.328125 42.539062 12.117188 42.503906 11.964844 42.457031 C 11.742188 42.386719 11.589844 42.269531 11.484375 42.128906 C 11.402344 42.011719 11.34375 41.871094 11.332031 41.695312 C 11.320312 41.589844 11.308594 41.4375 11.320312 41.238281 L 11.789062 32.660156 C 11.8125 32.132812 11.8125 31.722656 11.777344 31.429688 C 11.71875 30.984375 11.589844 30.609375 11.390625 30.304688 C 11.191406 30.023438 10.898438 29.765625 10.511719 29.542969 C 10.265625 29.402344 9.890625 29.226562 9.398438 29.027344 L 8.765625 28.78125 C 8.648438 28.675781 8.449219 28.570312 8.179688 28.464844 C 7.851562 28.335938 7.628906 28.207031 7.523438 28.089844 C 7.417969 28.007812 7.324219 27.855469 7.21875 27.644531 C 7.089844 27.386719 6.949219 26.988281 6.785156 26.460938 C 6.609375 25.921875 6.46875 25.523438 6.363281 25.265625 C 6.199219 24.925781 6.082031 24.667969 6.011719 24.492188 C 5.964844 24.375 5.882812 24.105469 5.765625 23.683594 C 5.660156 23.355469 5.566406 23.085938 5.460938 22.898438 C 5.285156 22.582031 5.027344 22.324219 4.675781 22.101562 C 4.359375 21.890625 4.007812 21.738281 3.609375 21.632812 C 3.445312 21.585938 3.351562 21.550781 3.339844 21.550781 C 3.246094 21.515625 3.164062 21.46875 3.117188 21.410156 C 3.105469 21.398438 3.105469 21.398438 3.09375 21.386719 L 2.660156 18.117188 C 2.730469 17.976562 2.777344 17.824219 2.835938 17.636719 C 2.929688 17.25 3.070312 16.992188 3.234375 16.851562 C 3.316406 16.804688 3.421875 16.746094 3.550781 16.699219 C 3.632812 16.664062 3.738281 16.628906 3.890625 16.582031 C 3.984375 16.546875 4.136719 16.464844 4.335938 16.359375 C 4.535156 16.277344 4.699219 16.207031 4.792969 16.160156 C 4.886719 16.136719 5.003906 16.089844 5.167969 16.042969 C 5.296875 15.996094 5.414062 15.949219 5.507812 15.890625 C 5.648438 15.808594 5.765625 15.691406 5.835938 15.5625 C 5.929688 15.527344 6.023438 15.492188 6.082031 15.46875 C 6.152344 15.433594 6.210938 15.410156 6.269531 15.386719 C 6.398438 15.363281 6.527344 15.363281 6.65625 15.363281 C 7.40625 15.375 8.226562 15.609375 9.105469 16.078125 C 9.46875 16.265625 9.726562 16.382812 9.902344 16.441406 C 10.21875 16.535156 10.488281 16.535156 10.710938 16.429688 C 10.945312 16.335938 11.097656 16.148438 11.203125 15.890625 C 11.285156 15.644531 11.285156 15.398438 11.226562 15.152344 C 11.167969 14.941406 11.074219 14.71875 10.921875 14.472656 C 10.734375 14.191406 10.605469 13.992188 10.511719 13.839844 C 9.996094 13.019531 9.703125 12.128906 9.621094 11.167969 C 9.609375 11.121094 9.609375 11.085938 9.609375 11.039062 C 9.5625 10.3125 9.703125 9.726562 10.019531 9.292969 C 10.207031 9.046875 10.476562 8.824219 10.828125 8.636719 C 11.085938 8.507812 11.414062 8.378906 11.824219 8.226562 C 12.539062 8.003906 13.265625 7.792969 13.980469 7.628906 C 14.367188 7.535156 14.660156 7.523438 14.847656 7.605469 C 15.011719 7.652344 15.164062 7.792969 15.304688 7.992188 C 15.328125 8.015625 15.339844 8.039062 15.363281 8.074219 C 15.433594 8.179688 15.527344 8.332031 15.644531 8.519531 C 15.855469 8.789062 16.136719 9.023438 16.488281 9.210938 C 16.828125 9.363281 17.179688 9.46875 17.589844 9.515625 C 17.90625 9.5625 18.269531 9.574219 18.679688 9.539062 L 18.667969 9.539062 C 18.644531 9.492188 18.609375 9.445312 18.585938 9.398438 C 18.644531 9.398438 18.714844 9.398438 18.785156 9.386719 C 20.0625 9.339844 21.480469 9.527344 23.039062 9.949219 C 23.894531 10.171875 25.265625 10.617188 27.152344 11.296875 C 28.851562 11.917969 30.234375 12.328125 31.289062 12.574219 C 32.859375 12.914062 34.277344 13.007812 35.554688 12.867188 C 36.972656 12.691406 38.273438 12.246094 39.480469 11.53125 C 39.878906 11.296875 40.464844 10.910156 41.238281 10.371094 C 41.929688 9.9375 42.5625 9.667969 43.136719 9.574219 C 43.265625 9.550781 43.441406 9.515625 43.6875 9.492188 M 19.359375 28.347656 C 19.359375 28.792969 19.535156 29.167969 19.863281 29.484375 C 20.0625 29.660156 20.273438 29.789062 20.507812 29.871094 C 20.695312 29.929688 20.882812 29.953125 21.082031 29.953125 C 21.082031 29.953125 21.082031 29.953125 21.09375 29.953125 C 21.5625 29.953125 21.960938 29.789062 22.289062 29.484375 C 22.628906 29.167969 22.792969 28.792969 22.792969 28.347656 C 22.792969 27.890625 22.628906 27.503906 22.289062 27.1875 C 21.960938 26.871094 21.550781 26.71875 21.082031 26.71875 C 20.601562 26.71875 20.203125 26.871094 19.863281 27.1875 C 19.535156 27.503906 19.359375 27.890625 19.359375 28.347656 M 14.273438 13.957031 L 13.699219 14.039062 C 14.203125 17.074219 14.554688 20.695312 14.730469 24.949219 L 15.375 24.902344 C 18.210938 22.253906 21.527344 22.089844 25.324219 24.421875 C 29.214844 27.492188 33.796875 26.824219 39.09375 22.441406 L 42.621094 11.707031 C 38.027344 16.160156 32.554688 16.921875 26.226562 14.015625 C 22.441406 11.308594 18.457031 11.296875 14.273438 13.957031 M 6.539062 17.203125 C 6.070312 17.203125 5.660156 17.367188 5.332031 17.671875 C 4.992188 17.988281 4.828125 18.375 4.828125 18.820312 C 4.828125 19.265625 4.992188 19.652344 5.332031 19.957031 C 5.660156 20.285156 6.070312 20.449219 6.539062 20.449219 C 6.539062 20.449219 6.550781 20.449219 6.5625 20.449219 C 6.644531 20.449219 6.726562 20.4375 6.820312 20.425781 C 7.171875 20.367188 7.488281 20.214844 7.757812 19.957031 C 8.097656 19.652344 8.261719 19.265625 8.261719 18.820312 C 8.261719 18.375 8.097656 17.988281 7.757812 17.671875 C 7.429688 17.367188 7.019531 17.203125 6.539062 17.203125 Z M 6.539062 17.203125 "/>
<path style="fill:none;stroke-width:8;stroke-linecap:round;stroke-linejoin:round;stroke:rgb(28.627451%,100%,30.196078%);stroke-opacity:1;stroke-miterlimit:4;" d="M 67.126368 142.416356 C 67.126368 146.255253 65.793362 149.589033 63.032136 152.215647 C 60.842198 154.438166 58.271401 155.751473 55.414959 156.256592 C 54.653242 156.357615 53.986739 156.458639 53.320236 156.458639 C 53.225021 156.458639 53.129806 156.458639 53.129806 156.458639 C 49.321218 156.458639 45.988703 155.044308 43.322692 152.215647 C 40.561465 149.589033 39.228459 146.255253 39.228459 142.416356 C 39.228459 138.577458 40.561465 135.243679 43.322692 132.516041 C 45.988703 129.889427 49.321218 128.475096 53.129806 128.475096 C 57.033609 128.475096 60.366124 129.889427 63.032136 132.516041 C 65.793362 135.243679 67.126368 138.577458 67.126368 142.416356 Z M 185.192605 224.548559 C 185.192605 228.387456 183.859599 231.620212 181.098372 234.34785 C 178.432361 236.974464 175.195061 238.388794 171.386472 238.388794 C 171.291258 238.388794 171.291258 238.388794 171.291258 238.388794 C 169.672608 238.388794 168.149172 238.186747 166.625737 237.681629 C 164.721443 236.974464 163.007578 235.863204 161.388928 234.34785 C 158.722916 231.620212 157.294696 228.387456 157.294696 224.548559 C 157.294696 220.608637 158.722916 217.274858 161.388928 214.54722 C 164.150155 211.819582 167.387455 210.506275 171.291258 210.506275 C 175.099846 210.506275 178.432361 211.819582 181.098372 214.54722 C 183.859599 217.274858 185.192605 220.608637 185.192605 224.548559 Z M 185.192605 224.548559 " transform="matrix(0.123077,0,0,0.116,0,2.300001)"/>
<path style="fill:none;stroke-width:16;stroke-linecap:round;stroke-linejoin:round;stroke:rgb(28.627451%,100%,30.196078%);stroke-opacity:1;stroke-miterlimit:4;" d="M 115.971513 100.491553 C 149.963163 77.559192 182.336164 77.660215 213.090514 100.996672 C 264.506456 126.050529 308.971724 119.483994 346.295889 81.095018 L 317.636262 173.632654 C 274.599215 211.415488 237.370264 217.173834 205.758982 190.705646 C 174.909417 170.601946 147.963654 172.016276 124.921695 194.847614 M 119.684887 195.251709 C 119.970531 202.424386 120.16096 209.900134 120.256175 217.577929 C 120.827463 239.298007 120.827463 262.735487 120.446604 287.789345 C 120.256175 298.699896 120.065745 309.812494 119.684887 321.329186 M 119.684887 195.251709 C 118.256666 158.580135 115.400225 127.363836 111.305992 101.198719 C 109.401698 89.075884 107.21176 78.165333 104.640963 68.366042 " transform="matrix(0.123077,0,0,0.116,0,2.300001)"/>
<path style="fill:none;stroke-width:12;stroke-linecap:round;stroke-linejoin:round;stroke:rgb(28.627451%,100%,30.196078%);stroke-opacity:1;stroke-miterlimit:4;" d="M 122.065254 287.890368 L 159.484634 264.149818 L 165.864019 240.510291 M 55.605389 158.883206 L 69.411521 198.282417 L 113.305501 217.577929 " transform="matrix(0.123077,0,0,0.116,0,2.300001)"/>
</g>
</svg>
